<?xml version="1.0" encoding="UTF-8" standalone="no"?><svg xmlns="http://www.w3.org/2000/svg" xmlns:xlink="http://www.w3.org/1999/xlink" contentStyleType="text/css" height="293px" preserveAspectRatio="none" style="width:288px;height:293px;background:#FFFFFF;" version="1.1" viewBox="0 0 288 293" width="288px" zoomAndPan="magnify"><defs/><g><!--MD5=[bdacc2652c53199c71303dc7f1a102c8]
class EntityBase--><g id="elem_EntityBase"><rect codeLine="4" fill="#F1F1F1" height="100.8281" id="EntityBase" rx="2.5" ry="2.5" style="stroke:#181818;stroke-width:0.5;" width="103" x="7" y="7"/><ellipse cx="23.8" cy="23" fill="#A9DCDF" rx="11" ry="11" style="stroke:#181818;stroke-width:1.0;"/><path d="M25.9875,24.7656 L21.8469,24.7656 L21.425,25.7969 L21.8469,25.7969 Q22.4563,25.7969 22.7219,26.0313 Q22.9875,26.2656 22.9875,26.6563 Q22.9875,27.0313 22.7219,27.2656 Q22.4563,27.5 21.8469,27.5 L19.55,27.5 Q18.9406,27.5 18.6906,27.2656 Q18.425,27.0313 18.425,26.6406 Q18.425,26.2656 18.7063,26.0313 Q18.9719,25.7813 19.5969,25.7969 L22.2688,19.1406 L21.1594,19.1406 Q20.55,19.1406 20.2844,18.9063 Q20.0188,18.6719 20.0188,18.2813 Q20.0188,17.9063 20.2844,17.6719 Q20.55,17.4375 21.1594,17.4375 L24.8313,17.4375 L28.2219,25.7969 Q28.8156,25.7969 29.0031,25.9375 Q29.3938,26.2031 29.3938,26.6563 Q29.3938,27.0313 29.1281,27.2656 Q28.8781,27.5 28.2688,27.5 L25.9719,27.5 Q25.3625,27.5 25.0969,27.2656 Q24.8313,27.0313 24.8313,26.6406 Q24.8313,26.2656 25.0969,26.0313 Q25.3625,25.7969 25.9719,25.7969 L26.3938,25.7969 L25.9875,24.7656 Z M25.2688,23.0625 L23.9094,19.6875 L22.5344,23.0625 L25.2688,23.0625 Z " fill="#000000"/><text fill="#000000" font-family="sans-serif" font-size="14" font-style="italic" lengthAdjust="spacing" textLength="67" x="38.2" y="28.7285">EntityBase</text><line style="stroke:#181818;stroke-width:0.5;" x1="8" x2="109" y1="39" y2="39"/><text fill="#000000" font-family="sans-serif" font-size="14" lengthAdjust="spacing" textLength="19" x="13" y="57.5332">+Id</text><text fill="#000000" font-family="sans-serif" font-size="14" lengthAdjust="spacing" textLength="89" x="13" y="75.1426">+DateCreated</text><text fill="#000000" font-family="sans-serif" font-size="14" lengthAdjust="spacing" textLength="91" x="13" y="92.752">+DateModified</text><line style="stroke:#181818;stroke-width:0.5;" x1="8" x2="109" y1="99.8281" y2="99.8281"/></g><!--MD5=[7b57f7066b803747d2119f99dd1555d4]
class Profile--><g id="elem_Profile"><rect codeLine="10" fill="#F1F1F1" height="118.4375" id="Profile" rx="2.5" ry="2.5" style="stroke:#181818;stroke-width:0.5;" width="84" x="16.5" y="168"/><ellipse cx="36.9" cy="184" fill="#ADD1B2" rx="11" ry="11" style="stroke:#181818;stroke-width:1.0;"/><path d="M39.6656,179.875 Q39.8219,179.6563 40.0094,179.5469 Q40.1969,179.4375 40.4156,179.4375 Q40.7906,179.4375 41.025,179.7031 Q41.2594,179.9531 41.2594,180.5625 L41.2594,182.0156 Q41.2594,182.625 41.025,182.8906 Q40.7906,183.1563 40.4156,183.1563 Q40.0719,183.1563 39.8688,182.9531 Q39.6656,182.7656 39.5563,182.25 Q39.5094,181.8906 39.3219,181.7031 Q38.9938,181.3281 38.3844,181.1094 Q37.775,180.8906 37.15,180.8906 Q36.3844,180.8906 35.7438,181.2188 Q35.1188,181.5469 34.6188,182.2969 Q34.1344,183.0469 34.1344,184.0781 L34.1344,185.1719 Q34.1344,186.4063 35.025,187.2344 Q35.9156,188.0469 37.5094,188.0469 Q38.4469,188.0469 39.1031,187.7969 Q39.4938,187.6406 39.9156,187.2031 Q40.1813,186.9375 40.3219,186.8594 Q40.4781,186.7813 40.6813,186.7813 Q41.0094,186.7813 41.2594,187.0469 Q41.525,187.2969 41.525,187.6406 Q41.525,187.9844 41.1813,188.3906 Q40.6813,188.9688 39.8844,189.2969 Q38.8063,189.75 37.5094,189.75 Q35.9938,189.75 34.7906,189.125 Q33.8063,188.625 33.1188,187.5625 Q32.4313,186.4844 32.4313,185.2031 L32.4313,184.0469 Q32.4313,182.7188 33.0406,181.5781 Q33.6656,180.4219 34.7594,179.8125 Q35.8531,179.1875 37.0875,179.1875 Q37.8219,179.1875 38.4625,179.3594 Q39.1188,179.5156 39.6656,179.875 Z " fill="#000000"/><text fill="#000000" font-family="sans-serif" font-size="14" lengthAdjust="spacing" textLength="40" x="52.1" y="189.7285">Profile</text><line style="stroke:#181818;stroke-width:0.5;" x1="17.5" x2="99.5" y1="200" y2="200"/><text fill="#000000" font-family="sans-serif" font-size="14" lengthAdjust="spacing" textLength="72" x="22.5" y="218.5332">+FirstName</text><text fill="#000000" font-family="sans-serif" font-size="14" lengthAdjust="spacing" textLength="71" x="22.5" y="236.1426">+LastName</text><text fill="#000000" font-family="sans-serif" font-size="14" lengthAdjust="spacing" textLength="33" x="22.5" y="253.752">+Age</text><text fill="#000000" font-family="sans-serif" font-size="14" lengthAdjust="spacing" textLength="69" x="22.5" y="271.3613">+Nickname</text><line style="stroke:#181818;stroke-width:0.5;" x1="17.5" x2="99.5" y1="278.4375" y2="278.4375"/></g><!--MD5=[18b89e0834131a909517048318a5909c]
class Picture--><g id="elem_Picture"><rect codeLine="17" fill="#F1F1F1" height="100.8281" id="Picture" rx="2.5" ry="2.5" style="stroke:#181818;stroke-width:0.5;" width="145" x="136" y="176.5"/><ellipse cx="182.25" cy="192.5" fill="#ADD1B2" rx="11" ry="11" style="stroke:#181818;stroke-width:1.0;"/><path d="M185.0156,188.375 Q185.1719,188.1563 185.3594,188.0469 Q185.5469,187.9375 185.7656,187.9375 Q186.1406,187.9375 186.375,188.2031 Q186.6094,188.4531 186.6094,189.0625 L186.6094,190.5156 Q186.6094,191.125 186.375,191.3906 Q186.1406,191.6563 185.7656,191.6563 Q185.4219,191.6563 185.2188,191.4531 Q185.0156,191.2656 184.9063,190.75 Q184.8594,190.3906 184.6719,190.2031 Q184.3438,189.8281 183.7344,189.6094 Q183.125,189.3906 182.5,189.3906 Q181.7344,189.3906 181.0938,189.7188 Q180.4688,190.0469 179.9688,190.7969 Q179.4844,191.5469 179.4844,192.5781 L179.4844,193.6719 Q179.4844,194.9063 180.375,195.7344 Q181.2656,196.5469 182.8594,196.5469 Q183.7969,196.5469 184.4531,196.2969 Q184.8438,196.1406 185.2656,195.7031 Q185.5313,195.4375 185.6719,195.3594 Q185.8281,195.2813 186.0313,195.2813 Q186.3594,195.2813 186.6094,195.5469 Q186.875,195.7969 186.875,196.1406 Q186.875,196.4844 186.5313,196.8906 Q186.0313,197.4688 185.2344,197.7969 Q184.1563,198.25 182.8594,198.25 Q181.3438,198.25 180.1406,197.625 Q179.1563,197.125 178.4688,196.0625 Q177.7813,194.9844 177.7813,193.7031 L177.7813,192.5469 Q177.7813,191.2188 178.3906,190.0781 Q179.0156,188.9219 180.1094,188.3125 Q181.2031,187.6875 182.4375,187.6875 Q183.1719,187.6875 183.8125,187.8594 Q184.4688,188.0156 185.0156,188.375 Z " fill="#000000"/><text fill="#000000" font-family="sans-serif" font-size="14" lengthAdjust="spacing" textLength="44" x="202.75" y="198.2285">Picture</text><line style="stroke:#181818;stroke-width:0.5;" x1="137" x2="280" y1="208.5" y2="208.5"/><text fill="#000000" font-family="sans-serif" font-size="14" lengthAdjust="spacing" textLength="59" x="142" y="227.0332">+ProfileId</text><text fill="#000000" font-family="sans-serif" font-size="14" lengthAdjust="spacing" textLength="133" x="142" y="244.6426">+ThumbnailFileName</text><text fill="#000000" font-family="sans-serif" font-size="14" lengthAdjust="spacing" textLength="67" x="142" y="262.252">+FileName</text><line style="stroke:#181818;stroke-width:0.5;" x1="137" x2="280" y1="269.3281" y2="269.3281"/></g><!--MD5=[bafed16309575dd4d0758aa582a84198]
reverse link EntityBase to Profile--><g id="link_EntityBase_Profile"><path d="M58.5,128.37 C58.5,141.5 58.5,155.11 58.5,167.84 " fill="none" id="EntityBase-backto-Profile" style="stroke:#181818;stroke-width:1.0;"/><polygon fill="none" points="51.5,128.3,58.5,108.3,65.5,128.3,51.5,128.3" style="stroke:#181818;stroke-width:1.0;"/></g><!--MD5=[bd825935def22c024f28f488a61e3a64]
link Profile to Picture--><g id="link_Profile_Picture"><path codeLine="23" d="M100.69,227 C110.61,227 120.53,227 130.45,227 " fill="none" id="Profile-to-Picture" style="stroke:#181818;stroke-width:1.0;"/><polygon fill="#181818" points="135.64,227,126.64,223,130.64,227,126.64,231,135.64,227" style="stroke:#181818;stroke-width:1.0;"/></g><!--MD5=[07b9b05ba430a83dd75ec3584b83b2b8]
@startuml Entities

skinparam ClassAttributeIconSize 0

abstract class EntityBase {
  + Id
  + DateCreated
  + DateModified
}

class Profile extends EntityBase {
  + FirstName
  + LastName
  + Age
  + Nickname
}

class Picture {
  + ProfileId
  + ThumbnailFileName
  + FileName
}

Profile -> Picture


@enduml

PlantUML version 1.2022.7(Mon Aug 22 12:01:30 CDT 2022)
(GPL source distribution)
Java Runtime: OpenJDK Runtime Environment
JVM: OpenJDK 64-Bit Server VM
Default Encoding: Cp1252
Language: en
Country: US
--></g></svg>