<?xml version="1.0" encoding="UTF-8" standalone="no"?><svg xmlns="http://www.w3.org/2000/svg" xmlns:xlink="http://www.w3.org/1999/xlink" contentStyleType="text/css" height="293px" preserveAspectRatio="none" style="width:278px;height:293px;background:#FFFFFF;" version="1.1" viewBox="0 0 278 293" width="278px" zoomAndPan="magnify"><defs/><g><!--MD5=[bdacc2652c53199c71303dc7f1a102c8]
class EntityBase--><g id="elem_EntityBase"><rect codeLine="4" fill="#F1F1F1" height="100.8281" id="EntityBase" rx="2.5" ry="2.5" style="stroke:#181818;stroke-width:0.5;" width="103" x="72.5" y="7"/><ellipse cx="89.3" cy="23" fill="#A9DCDF" rx="11" ry="11" style="stroke:#181818;stroke-width:1.0;"/><path d="M91.4875,24.7656 L87.3469,24.7656 L86.925,25.7969 L87.3469,25.7969 Q87.9563,25.7969 88.2219,26.0313 Q88.4875,26.2656 88.4875,26.6563 Q88.4875,27.0313 88.2219,27.2656 Q87.9563,27.5 87.3469,27.5 L85.05,27.5 Q84.4406,27.5 84.1906,27.2656 Q83.925,27.0313 83.925,26.6406 Q83.925,26.2656 84.2063,26.0313 Q84.4719,25.7813 85.0969,25.7969 L87.7688,19.1406 L86.6594,19.1406 Q86.05,19.1406 85.7844,18.9063 Q85.5188,18.6719 85.5188,18.2813 Q85.5188,17.9063 85.7844,17.6719 Q86.05,17.4375 86.6594,17.4375 L90.3313,17.4375 L93.7219,25.7969 Q94.3156,25.7969 94.5031,25.9375 Q94.8938,26.2031 94.8938,26.6563 Q94.8938,27.0313 94.6281,27.2656 Q94.3781,27.5 93.7688,27.5 L91.4719,27.5 Q90.8625,27.5 90.5969,27.2656 Q90.3313,27.0313 90.3313,26.6406 Q90.3313,26.2656 90.5969,26.0313 Q90.8625,25.7969 91.4719,25.7969 L91.8938,25.7969 L91.4875,24.7656 Z M90.7688,23.0625 L89.4094,19.6875 L88.0344,23.0625 L90.7688,23.0625 Z " fill="#000000"/><text fill="#000000" font-family="sans-serif" font-size="14" font-style="italic" lengthAdjust="spacing" textLength="67" x="103.7" y="28.7285">EntityBase</text><line style="stroke:#181818;stroke-width:0.5;" x1="73.5" x2="174.5" y1="39" y2="39"/><text fill="#000000" font-family="sans-serif" font-size="14" lengthAdjust="spacing" textLength="19" x="78.5" y="57.5332">+Id</text><text fill="#000000" font-family="sans-serif" font-size="14" lengthAdjust="spacing" textLength="89" x="78.5" y="75.1426">+DateCreated</text><text fill="#000000" font-family="sans-serif" font-size="14" lengthAdjust="spacing" textLength="91" x="78.5" y="92.752">+DateModified</text><line style="stroke:#181818;stroke-width:0.5;" x1="73.5" x2="174.5" y1="99.8281" y2="99.8281"/></g><!--MD5=[7b57f7066b803747d2119f99dd1555d4]
class Profile--><g id="elem_Profile"><rect codeLine="10" fill="#F1F1F1" height="118.4375" id="Profile" rx="2.5" ry="2.5" style="stroke:#181818;stroke-width:0.5;" width="84" x="7" y="168"/><ellipse cx="27.4" cy="184" fill="#ADD1B2" rx="11" ry="11" style="stroke:#181818;stroke-width:1.0;"/><path d="M30.1656,179.875 Q30.3219,179.6563 30.5094,179.5469 Q30.6969,179.4375 30.9156,179.4375 Q31.2906,179.4375 31.525,179.7031 Q31.7594,179.9531 31.7594,180.5625 L31.7594,182.0156 Q31.7594,182.625 31.525,182.8906 Q31.2906,183.1563 30.9156,183.1563 Q30.5719,183.1563 30.3688,182.9531 Q30.1656,182.7656 30.0563,182.25 Q30.0094,181.8906 29.8219,181.7031 Q29.4938,181.3281 28.8844,181.1094 Q28.275,180.8906 27.65,180.8906 Q26.8844,180.8906 26.2438,181.2188 Q25.6188,181.5469 25.1188,182.2969 Q24.6344,183.0469 24.6344,184.0781 L24.6344,185.1719 Q24.6344,186.4063 25.525,187.2344 Q26.4156,188.0469 28.0094,188.0469 Q28.9469,188.0469 29.6031,187.7969 Q29.9938,187.6406 30.4156,187.2031 Q30.6813,186.9375 30.8219,186.8594 Q30.9781,186.7813 31.1813,186.7813 Q31.5094,186.7813 31.7594,187.0469 Q32.025,187.2969 32.025,187.6406 Q32.025,187.9844 31.6813,188.3906 Q31.1813,188.9688 30.3844,189.2969 Q29.3063,189.75 28.0094,189.75 Q26.4938,189.75 25.2906,189.125 Q24.3063,188.625 23.6188,187.5625 Q22.9313,186.4844 22.9313,185.2031 L22.9313,184.0469 Q22.9313,182.7188 23.5406,181.5781 Q24.1656,180.4219 25.2594,179.8125 Q26.3531,179.1875 27.5875,179.1875 Q28.3219,179.1875 28.9625,179.3594 Q29.6188,179.5156 30.1656,179.875 Z " fill="#000000"/><text fill="#000000" font-family="sans-serif" font-size="14" lengthAdjust="spacing" textLength="40" x="42.6" y="189.7285">Profile</text><line style="stroke:#181818;stroke-width:0.5;" x1="8" x2="90" y1="200" y2="200"/><text fill="#000000" font-family="sans-serif" font-size="14" lengthAdjust="spacing" textLength="72" x="13" y="218.5332">+FirstName</text><text fill="#000000" font-family="sans-serif" font-size="14" lengthAdjust="spacing" textLength="71" x="13" y="236.1426">+LastName</text><text fill="#000000" font-family="sans-serif" font-size="14" lengthAdjust="spacing" textLength="33" x="13" y="253.752">+Age</text><text fill="#000000" font-family="sans-serif" font-size="14" lengthAdjust="spacing" textLength="69" x="13" y="271.3613">+Nickname</text><line style="stroke:#181818;stroke-width:0.5;" x1="8" x2="90" y1="278.4375" y2="278.4375"/></g><!--MD5=[18b89e0834131a909517048318a5909c]
class Picture--><g id="elem_Picture"><rect codeLine="17" fill="#F1F1F1" height="100.8281" id="Picture" rx="2.5" ry="2.5" style="stroke:#181818;stroke-width:0.5;" width="145" x="126.5" y="176.5"/><ellipse cx="172.75" cy="192.5" fill="#ADD1B2" rx="11" ry="11" style="stroke:#181818;stroke-width:1.0;"/><path d="M175.5156,188.375 Q175.6719,188.1563 175.8594,188.0469 Q176.0469,187.9375 176.2656,187.9375 Q176.6406,187.9375 176.875,188.2031 Q177.1094,188.4531 177.1094,189.0625 L177.1094,190.5156 Q177.1094,191.125 176.875,191.3906 Q176.6406,191.6563 176.2656,191.6563 Q175.9219,191.6563 175.7188,191.4531 Q175.5156,191.2656 175.4063,190.75 Q175.3594,190.3906 175.1719,190.2031 Q174.8438,189.8281 174.2344,189.6094 Q173.625,189.3906 173,189.3906 Q172.2344,189.3906 171.5938,189.7188 Q170.9688,190.0469 170.4688,190.7969 Q169.9844,191.5469 169.9844,192.5781 L169.9844,193.6719 Q169.9844,194.9063 170.875,195.7344 Q171.7656,196.5469 173.3594,196.5469 Q174.2969,196.5469 174.9531,196.2969 Q175.3438,196.1406 175.7656,195.7031 Q176.0313,195.4375 176.1719,195.3594 Q176.3281,195.2813 176.5313,195.2813 Q176.8594,195.2813 177.1094,195.5469 Q177.375,195.7969 177.375,196.1406 Q177.375,196.4844 177.0313,196.8906 Q176.5313,197.4688 175.7344,197.7969 Q174.6563,198.25 173.3594,198.25 Q171.8438,198.25 170.6406,197.625 Q169.6563,197.125 168.9688,196.0625 Q168.2813,194.9844 168.2813,193.7031 L168.2813,192.5469 Q168.2813,191.2188 168.8906,190.0781 Q169.5156,188.9219 170.6094,188.3125 Q171.7031,187.6875 172.9375,187.6875 Q173.6719,187.6875 174.3125,187.8594 Q174.9688,188.0156 175.5156,188.375 Z " fill="#000000"/><text fill="#000000" font-family="sans-serif" font-size="14" lengthAdjust="spacing" textLength="44" x="193.25" y="198.2285">Picture</text><line style="stroke:#181818;stroke-width:0.5;" x1="127.5" x2="270.5" y1="208.5" y2="208.5"/><text fill="#000000" font-family="sans-serif" font-size="14" lengthAdjust="spacing" textLength="59" x="132.5" y="227.0332">+ProfileId</text><text fill="#000000" font-family="sans-serif" font-size="14" lengthAdjust="spacing" textLength="133" x="132.5" y="244.6426">+ThumbnailFileName</text><text fill="#000000" font-family="sans-serif" font-size="14" lengthAdjust="spacing" textLength="67" x="132.5" y="262.252">+FileName</text><line style="stroke:#181818;stroke-width:0.5;" x1="127.5" x2="270.5" y1="269.3281" y2="269.3281"/></g><!--MD5=[bafed16309575dd4d0758aa582a84198]
reverse link EntityBase to Profile--><g id="link_EntityBase_Profile"><path d="M93.35,126.96 C87.27,140.53 80.95,154.65 75.04,167.84 " fill="none" id="EntityBase-backto-Profile" style="stroke:#181818;stroke-width:1.0;"/><polygon fill="none" points="87.14,123.7,101.7,108.3,99.92,129.42,87.14,123.7" style="stroke:#181818;stroke-width:1.0;"/></g><!--MD5=[33e3a71fd1a6e05989402b13be2a6e4d]
reverse link EntityBase to Picture--><g id="link_EntityBase_Picture"><path d="M154.49,126.6 C161.95,143.26 169.8,160.78 176.79,176.39 " fill="none" id="EntityBase-backto-Picture" style="stroke:#181818;stroke-width:1.0;"/><polygon fill="none" points="148.08,129.42,146.3,108.3,160.86,123.7,148.08,129.42" style="stroke:#181818;stroke-width:1.0;"/></g><!--MD5=[bd825935def22c024f28f488a61e3a64]
link Profile to Picture--><g id="link_Profile_Picture"><path codeLine="23" d="M91.19,227 C101.11,227 111.03,227 120.95,227 " fill="none" id="Profile-to-Picture" style="stroke:#181818;stroke-width:1.0;"/><polygon fill="#181818" points="126.14,227,117.14,223,121.14,227,117.14,231,126.14,227" style="stroke:#181818;stroke-width:1.0;"/></g><!--MD5=[338b2cc486dc2853be37ad0fb2d0c557]
@startuml Entities

skinparam ClassAttributeIconSize 0

abstract class EntityBase {
  + Id
  + DateCreated
  + DateModified
}

class Profile extends EntityBase {
  + FirstName
  + LastName
  + Age
  + Nickname
}

class Picture extends EntityBase {
  + ProfileId
  + ThumbnailFileName
  + FileName
}

Profile -> Picture


@enduml

PlantUML version 1.2022.7(Mon Aug 22 12:01:30 CDT 2022)
(GPL source distribution)
Java Runtime: OpenJDK Runtime Environment
JVM: OpenJDK 64-Bit Server VM
Default Encoding: Cp1252
Language: en
Country: US
--></g></svg>