<?xml version="1.0" encoding="UTF-8" standalone="no"?><svg xmlns="http://www.w3.org/2000/svg" xmlns:xlink="http://www.w3.org/1999/xlink" contentStyleType="text/css" height="464px" preserveAspectRatio="none" style="width:286px;height:464px;background:#FFFFFF;" version="1.1" viewBox="0 0 286 464" width="286px" zoomAndPan="magnify"><defs/><g><!--MD5=[9b5fd479ff9e12a7cc0df0f0353b59f8]
entity a1--><g id="elem_a1"><ellipse cx="20.5" cy="192" fill="#F1F1F1" rx="8" ry="8" style="stroke:#181818;stroke-width:0.5;"/><path d="M20.5,200 L20.5,227 M7.5,208 L33.5,208 M20.5,227 L7.5,242 M20.5,227 L33.5,242 " fill="none" style="stroke:#181818;stroke-width:0.5;"/><text fill="#000000" font-family="sans-serif" font-size="14" lengthAdjust="spacing" textLength="29" x="6" y="258.0332">User</text></g><g id="elem_uc1"><ellipse cx="187.3631" cy="21.609" fill="#F1F1F1" rx="63.8631" ry="15.609" style="stroke:#181818;stroke-width:0.5;"/><text fill="#000000" font-family="sans-serif" font-size="14" lengthAdjust="spacing" textLength="73" x="147.8631" y="26.1256">List Profiles</text></g><g id="elem_uc2"><ellipse cx="187.4297" cy="87.5784" fill="#F1F1F1" rx="59.4297" ry="15.5784" style="stroke:#181818;stroke-width:0.5;"/><text fill="#000000" font-family="sans-serif" font-size="14" lengthAdjust="spacing" textLength="67" x="150.9297" y="92.095">Get Profile</text></g><g id="elem_uc3"><ellipse cx="187.3041" cy="154.3608" fill="#F1F1F1" rx="69.8041" ry="16.3608" style="stroke:#181818;stroke-width:0.5;"/><text fill="#000000" font-family="sans-serif" font-size="14" lengthAdjust="spacing" textLength="87" x="140.8041" y="158.8774">Create Profile</text></g><g id="elem_uc4"><ellipse cx="187.5039" cy="222.5008" fill="#F1F1F1" rx="70.5039" ry="16.5008" style="stroke:#181818;stroke-width:0.5;"/><text fill="#000000" font-family="sans-serif" font-size="14" lengthAdjust="spacing" textLength="89" x="140.0039" y="227.0174">Update Profile</text></g><g id="elem_uc5"><ellipse cx="187.6119" cy="290.7224" fill="#F1F1F1" rx="69.1119" ry="16.2224" style="stroke:#181818;stroke-width:0.5;"/><text fill="#000000" font-family="sans-serif" font-size="14" lengthAdjust="spacing" textLength="85" x="142.1119" y="295.239">Delete Profile</text></g><g id="elem_uc6"><ellipse cx="187.605" cy="361.721" fill="#F1F1F1" rx="89.105" ry="20.221" style="stroke:#181818;stroke-width:0.5;"/><text fill="#000000" font-family="sans-serif" font-size="14" lengthAdjust="spacing" textLength="136" x="119.605" y="365.4495">Upload Picture Profile</text></g><g id="elem_uc7"><ellipse cx="187.566" cy="437.4132" fill="#F1F1F1" rx="92.566" ry="20.9132" style="stroke:#181818;stroke-width:0.5;"/><text fill="#000000" font-family="sans-serif" font-size="14" lengthAdjust="spacing" textLength="144" x="115.566" y="441.1417">Remove Picture Profile</text></g><!--MD5=[31172f79e0f09d9fb45e9c8be47ed5bf]
link a1 to uc1--><g id="link_a1_uc1"><path d="M29.24,183.32 C38.64,145.52 58.04,89.09 95,54.5 C105.43,44.74 118.96,37.82 132.41,32.94 " fill="none" id="a1-to-uc1" style="stroke:#181818;stroke-width:1.0;"/><polygon fill="#181818" points="137.35,31.23,127.538,30.3788,132.6225,32.8582,130.1431,37.9427,137.35,31.23" style="stroke:#181818;stroke-width:1.0;"/></g><!--MD5=[e2ad679bd4207b095fcb64d2d4e85c6c]
link a1 to uc2--><g id="link_a1_uc2"><path d="M35.17,195.12 C47.84,172.27 68.69,140.35 95,120.5 C107.35,111.18 122.59,104.3 137.06,99.32 " fill="none" id="a1-to-uc2" style="stroke:#181818;stroke-width:1.0;"/><polygon fill="#181818" points="141.93,97.7,132.1269,96.7513,137.1866,99.2811,134.6568,104.3408,141.93,97.7" style="stroke:#181818;stroke-width:1.0;"/></g><!--MD5=[0ef7d1e8ed891935830bbafa87d53854]
link a1 to uc3--><g id="link_a1_uc3"><path d="M35.18,215.79 C49.83,208.68 73.84,197.31 95,188.5 C110.32,182.12 127.31,175.65 142.45,170.08 " fill="none" id="a1-to-uc3" style="stroke:#181818;stroke-width:1.0;"/><polygon fill="#181818" points="147.51,168.23,137.6842,167.5561,142.8127,169.9433,140.4255,175.0718,147.51,168.23" style="stroke:#181818;stroke-width:1.0;"/></g><!--MD5=[025ec85266a4772b634136a40aadcfb7]
link a1 to uc4--><g id="link_a1_uc4"><path d="M35,222.5 C52.03,222.5 82.62,222.5 111.88,222.5 " fill="none" id="a1-to-uc4" style="stroke:#181818;stroke-width:1.0;"/><polygon fill="#181818" points="116.94,222.5,107.94,218.5,111.94,222.5,107.94,226.5,116.94,222.5" style="stroke:#181818;stroke-width:1.0;"/></g><!--MD5=[5e2458551d8c0447300f0c8f1ec1dc9d]
link a1 to uc5--><g id="link_a1_uc5"><path d="M35.18,229.21 C49.83,236.32 73.84,247.69 95,256.5 C110.74,263.05 128.24,269.71 143.68,275.37 " fill="none" id="a1-to-uc5" style="stroke:#181818;stroke-width:1.0;"/><polygon fill="#181818" points="148.4,277.09,141.3155,270.2482,143.7027,275.3767,138.5742,277.7639,148.4,277.09" style="stroke:#181818;stroke-width:1.0;"/></g><!--MD5=[4b5d096e3f14c86911c90ed629d35aed]
link a1 to uc6--><g id="link_a1_uc6"><path d="M35.22,248.86 C48.06,271.31 69.12,303.09 95,323.5 C105.14,331.49 117.19,338.06 129.17,343.36 " fill="none" id="a1-to-uc6" style="stroke:#181818;stroke-width:1.0;"/><polygon fill="#181818" points="133.93,345.4,127.2334,338.1781,129.3343,343.4304,124.082,345.5313,133.93,345.4" style="stroke:#181818;stroke-width:1.0;"/></g><!--MD5=[868c882aaad2fe45dbefc867299f7700]
link a1 to uc7--><g id="link_a1_uc7"><path d="M28.84,261.59 C38.05,300.81 57.44,360.67 95,398.5 C103.3,406.86 113.68,413.54 124.44,418.83 " fill="none" id="a1-to-uc7" style="stroke:#181818;stroke-width:1.0;"/><polygon fill="#181818" points="129.07,421.02,122.6457,413.5549,124.5504,418.8814,119.2239,420.7862,129.07,421.02" style="stroke:#181818;stroke-width:1.0;"/></g><!--MD5=[8240ff7bf5904ff59ccb6e231b31049f]
@startuml use-cases

left to right direction

actor User as a1
usecase "List Profiles" as uc1
usecase "Get Profile" as uc2
usecase "Create Profile" as uc3
usecase "Update Profile" as uc4
usecase "Delete Profile" as uc5
usecase "Upload Picture Profile" as uc6
usecase "Remove Picture Profile" as uc7

a1 - -> uc1
a1 - -> uc2
a1 - -> uc3
a1 - -> uc4
a1 - -> uc5
a1 - -> uc6
a1 - -> uc7

@enduml

PlantUML version 1.2022.7(Mon Aug 22 12:01:30 CDT 2022)
(GPL source distribution)
Java Runtime: OpenJDK Runtime Environment
JVM: OpenJDK 64-Bit Server VM
Default Encoding: Cp1252
Language: en
Country: US
--></g></svg>