<?xml version="1.0" encoding="UTF-8" standalone="no"?><svg xmlns="http://www.w3.org/2000/svg" xmlns:xlink="http://www.w3.org/1999/xlink" contentStyleType="text/css" height="536px" preserveAspectRatio="none" style="width:286px;height:536px;background:#FFFFFF;" version="1.1" viewBox="0 0 286 536" width="286px" zoomAndPan="magnify"><defs/><g><!--MD5=[9b5fd479ff9e12a7cc0df0f0353b59f8]
entity a1--><g id="elem_a1"><ellipse cx="20.5" cy="226" fill="#F1F1F1" rx="8" ry="8" style="stroke:#181818;stroke-width:0.5;"/><path d="M20.5,234 L20.5,261 M7.5,242 L33.5,242 M20.5,261 L7.5,276 M20.5,261 L33.5,276 " fill="none" style="stroke:#181818;stroke-width:0.5;"/><text fill="#000000" font-family="sans-serif" font-size="14" lengthAdjust="spacing" textLength="29" x="6" y="292.0332">User</text></g><g id="elem_uc1"><ellipse cx="187.3631" cy="21.609" fill="#F1F1F1" rx="63.8631" ry="15.609" style="stroke:#181818;stroke-width:0.5;"/><text fill="#000000" font-family="sans-serif" font-size="14" lengthAdjust="spacing" textLength="73" x="147.8631" y="26.1256">List Profiles</text></g><g id="elem_uc2"><ellipse cx="187.4297" cy="87.5784" fill="#F1F1F1" rx="59.4297" ry="15.5784" style="stroke:#181818;stroke-width:0.5;"/><text fill="#000000" font-family="sans-serif" font-size="14" lengthAdjust="spacing" textLength="67" x="150.9297" y="92.095">Get Profile</text></g><g id="elem_uc3"><ellipse cx="187.3041" cy="154.3608" fill="#F1F1F1" rx="69.8041" ry="16.3608" style="stroke:#181818;stroke-width:0.5;"/><text fill="#000000" font-family="sans-serif" font-size="14" lengthAdjust="spacing" textLength="87" x="140.8041" y="158.8774">Create Profile</text></g><g id="elem_uc4"><ellipse cx="187.5039" cy="222.5008" fill="#F1F1F1" rx="70.5039" ry="16.5008" style="stroke:#181818;stroke-width:0.5;"/><text fill="#000000" font-family="sans-serif" font-size="14" lengthAdjust="spacing" textLength="89" x="140.0039" y="227.0174">Update Profile</text></g><g id="elem_uc5"><ellipse cx="187.6119" cy="290.7224" fill="#F1F1F1" rx="69.1119" ry="16.2224" style="stroke:#181818;stroke-width:0.5;"/><text fill="#000000" font-family="sans-serif" font-size="14" lengthAdjust="spacing" textLength="85" x="142.1119" y="295.239">Delete Profile</text></g><g id="elem_uc6"><ellipse cx="187.605" cy="361.721" fill="#F1F1F1" rx="89.105" ry="20.221" style="stroke:#181818;stroke-width:0.5;"/><text fill="#000000" font-family="sans-serif" font-size="14" lengthAdjust="spacing" textLength="136" x="119.605" y="365.4495">Upload Picture Profile</text></g><g id="elem_uc7"><ellipse cx="187.566" cy="437.4132" fill="#F1F1F1" rx="92.566" ry="20.9132" style="stroke:#181818;stroke-width:0.5;"/><text fill="#000000" font-family="sans-serif" font-size="14" lengthAdjust="spacing" textLength="144" x="115.566" y="441.1417">Remove Picture Profile</text></g><g id="elem_uc8"><ellipse cx="187.2827" cy="512.4565" fill="#F1F1F1" rx="80.2827" ry="18.4565" style="stroke:#181818;stroke-width:0.5;"/><text fill="#000000" font-family="sans-serif" font-size="14" lengthAdjust="spacing" textLength="115" x="128.9192" y="516.4341">Get Picture Profile</text></g><!--MD5=[31172f79e0f09d9fb45e9c8be47ed5bf]
link a1 to uc1--><g id="link_a1_uc1"><path d="M25.78,217.4 C32.72,172.37 50.47,98.9 95,54.5 C105.01,44.52 118.26,37.53 131.56,32.66 " fill="none" id="a1-to-uc1" style="stroke:#181818;stroke-width:1.0;"/><polygon fill="#181818" points="136.45,30.95,126.6357,30.1252,131.7269,32.5909,129.2612,37.6821,136.45,30.95" style="stroke:#181818;stroke-width:1.0;"/></g><!--MD5=[e2ad679bd4207b095fcb64d2d4e85c6c]
link a1 to uc2--><g id="link_a1_uc2"><path d="M33.98,217.22 C45.44,186.98 65.2,146.15 95,120.5 C106.5,110.6 121.2,103.59 135.43,98.65 " fill="none" id="a1-to-uc2" style="stroke:#181818;stroke-width:1.0;"/><polygon fill="#181818" points="140.24,97.05,130.4387,96.0836,135.4937,98.6226,132.9548,103.6776,140.24,97.05" style="stroke:#181818;stroke-width:1.0;"/></g><!--MD5=[0ef7d1e8ed891935830bbafa87d53854]
link a1 to uc3--><g id="link_a1_uc3"><path d="M35.02,240.84 C48.8,225.7 71.45,202.97 95,188.5 C107.97,180.53 123.11,173.96 137.29,168.8 " fill="none" id="a1-to-uc3" style="stroke:#181818;stroke-width:1.0;"/><polygon fill="#181818" points="142.06,167.1,132.2387,166.3638,137.3519,168.7835,134.9323,173.8967,142.06,167.1" style="stroke:#181818;stroke-width:1.0;"/></g><!--MD5=[025ec85266a4772b634136a40aadcfb7]
link a1 to uc4--><g id="link_a1_uc4"><path d="M35,253.72 C55.4,249.52 95.26,241.3 128.97,234.35 " fill="none" id="a1-to-uc4" style="stroke:#181818;stroke-width:1.0;"/><polygon fill="#181818" points="133.9,233.34,124.276,231.2473,129.0038,234.3535,125.8976,239.0813,133.9,233.34" style="stroke:#181818;stroke-width:1.0;"/></g><!--MD5=[5e2458551d8c0447300f0c8f1ec1dc9d]
link a1 to uc5--><g id="link_a1_uc5"><path d="M35,259.28 C55.69,263.55 96.41,271.94 130.42,278.94 " fill="none" id="a1-to-uc5" style="stroke:#181818;stroke-width:1.0;"/><polygon fill="#181818" points="135.39,279.97,127.391,274.2241,130.4944,278.9537,125.7648,282.0571,135.39,279.97" style="stroke:#181818;stroke-width:1.0;"/></g><!--MD5=[4b5d096e3f14c86911c90ed629d35aed]
link a1 to uc6--><g id="link_a1_uc6"><path d="M35.18,271.72 C49.09,286.49 71.83,308.77 95,323.5 C106.63,330.9 119.95,337.39 132.76,342.82 " fill="none" id="a1-to-uc6" style="stroke:#181818;stroke-width:1.0;"/><polygon fill="#181818" points="137.45,344.77,130.6886,337.6087,132.8367,342.8419,127.6036,344.99,137.45,344.77" style="stroke:#181818;stroke-width:1.0;"/></g><!--MD5=[868c882aaad2fe45dbefc867299f7700]
link a1 to uc7--><g id="link_a1_uc7"><path d="M33.51,295.76 C44.89,327.17 64.78,370.46 95,398.5 C103.86,406.72 114.72,413.36 125.81,418.67 " fill="none" id="a1-to-uc7" style="stroke:#181818;stroke-width:1.0;"/><polygon fill="#181818" points="130.58,420.87,124.0698,413.4796,126.036,418.7838,120.7319,420.75,130.58,420.87" style="stroke:#181818;stroke-width:1.0;"/></g><!--MD5=[1b721c2c2465839d7ca857f833a69c55]
link a1 to uc8--><g id="link_a1_uc8"><path d="M24.78,295.54 C30.79,343.68 47.72,425.27 95,475.5 C103.71,484.75 115.05,491.75 126.77,497.02 " fill="none" id="a1-to-uc8" style="stroke:#181818;stroke-width:1.0;"/><polygon fill="#181818" points="131.45,499.03,124.7723,491.7906,126.8595,497.0484,121.6017,499.1355,131.45,499.03" style="stroke:#181818;stroke-width:1.0;"/></g><!--MD5=[2aa3a120b0616e27bac57b56d783e1d8]
@startuml use-cases

left to right direction

actor User as a1
usecase "List Profiles" as uc1
usecase "Get Profile" as uc2
usecase "Create Profile" as uc3
usecase "Update Profile" as uc4
usecase "Delete Profile" as uc5
usecase "Upload Picture Profile" as uc6
usecase "Remove Picture Profile" as uc7
usecase "Get Picture Profile" as uc8

a1 - -> uc1
a1 - -> uc2
a1 - -> uc3
a1 - -> uc4
a1 - -> uc5
a1 - -> uc6
a1 - -> uc7
a1 - -> uc8

@enduml

PlantUML version 1.2022.7(Mon Aug 22 12:01:30 CDT 2022)
(GPL source distribution)
Java Runtime: OpenJDK Runtime Environment
JVM: OpenJDK 64-Bit Server VM
Default Encoding: Cp1252
Language: en
Country: US
--></g></svg>